<svg xmlns="http://www.w3.org/2000/svg" viewBox="0 0 95.5 127.88"><defs><style>.cls-1{fill:#231f20;}.cls-2{fill:none;stroke:#2e3192;stroke-miterlimit:10;}</style></defs><title>Asset 1</title><g id="Layer_2" data-name="Layer 2"><g id="Layer_2-2" data-name="Layer 2"><path class="cls-1" d="M95,55.25q-1.38,21.63-4.12,24.5A87.28,87.28,0,0,1,85.25,95.5Q77,112.5,73.62,116q-6.62,5.88-12.24,5.88c-1.59.41-2.38,1-2.38,1.62l-7.75,3-1-.25a84.12,84.12,0,0,1-11.63,1.13H36.38q-1.5,0-13.26-4.38-2.86-1.12-7.5-6.12c-2.5-1.67-3.74-3.34-3.74-5Q7.13,105.13,2.5,89.75A28.9,28.9,0,0,1,.75,83.62L.5,80.75Q.5,52.25,8.88,39q2.74-3.87,5-13.38A78.1,78.1,0,0,1,20,17.75q0-4.38,13.62-13.13,0-.75,9.76-3.24L54.12.5Q67.26,2.87,69.5,4.25,82,12,84.38,18.62l6.12,9.26Q92.63,36.74,95,55.25ZM83.75,56.44v-.87c0-1.33-.76-3.54-2.26-6.63q-1.24-14.25-3.24-17Q74.62,21.83,59.37,14.2c-3.25-1.5-5.33-2.26-6.25-2.26H52c-4.91,2.26-7.74,3.38-8.5,3.38-.33,0-.5.5-.5,1.5q-10.11,6.63-11.74,8.75L22.87,36.32a39.6,39.6,0,0,0-5.5,10,49.22,49.22,0,0,0-4.5,20.38V81.32q0,15,7.88,19.5,7.74,7.88,10,7.88a11.36,11.36,0,0,1,8.37,3.24l1.5.26,2-.26,1.5,1.5h.25c.67,0,1.54-.62,2.62-1.87q8.13-1.25,10.88-3.75Q70.13,95.7,70.12,94.44l7.25-21.87q4.13-16.12,6.12-16.13Z"/><path class="cls-2" d="M90.5,27.88l-6.12-9.26Q82,12,69.5,4.25,67.25,2.87,54.12.5l-10.74.88q-9.75,2.49-9.76,3.24Q20,13.38,20,17.75a78.1,78.1,0,0,0-6.12,7.87q-2.25,9.51-5,13.38Q.49,52.25.5,80.75l.25,2.87A28.9,28.9,0,0,0,2.5,89.75q4.62,15.38,9.38,22.13c0,1.66,1.24,3.33,3.74,5q4.64,5,7.5,6.12,11.76,4.38,13.26,4.38h2.24a84.12,84.12,0,0,0,11.63-1.13l1,.25,7.75-3c0-.67.79-1.21,2.38-1.62q5.61,0,12.24-5.88,3.39-3.5,11.63-20.5a87.28,87.28,0,0,0,5.63-15.75q2.75-2.88,4.12-24.5Q92.63,36.76,90.5,27.88Z"/><path class="cls-2" d="M70.12,94.44l7.25-21.87q4.13-16.12,6.12-16.13h.26v-.87c0-1.33-.76-3.54-2.26-6.63q-1.24-14.25-3.24-17Q74.62,21.83,59.37,14.2c-3.25-1.5-5.33-2.26-6.25-2.26H52c-4.91,2.26-7.74,3.38-8.5,3.38-.33,0-.5.5-.5,1.5q-10.11,6.63-11.74,8.75L22.87,36.32a39.6,39.6,0,0,0-5.5,10,49.22,49.22,0,0,0-4.5,20.38V81.32q0,15,7.88,19.5,7.74,7.88,10,7.88a11.36,11.36,0,0,1,8.37,3.24l1.5.26,2-.26,1.5,1.5h.25c.67,0,1.54-.62,2.62-1.87q8.13-1.25,10.88-3.75Q70.13,95.7,70.12,94.44Z"/></g></g></svg>